# xmcd
#
# Track frame offsets:
#	150
#	19634
#	39314
#	56693
#	74844
#	89745
#	110910
#	128344
#	147854
#	166987
#	182716
#
# Disc length: 2681 seconds
# Revision: 1
# Processed by: cddbd v1.5.2PL0 Copyright (c) Steve Scherf et al.
# Submitted via: dBpowerAMP V12.0
#
DISCID=9c0a770b
DTITLE=Wynonna - A Classic Christmas
DYEAR=2006
DGENRE=Christmas
TTITLE0=The Christmas Song
TTITLE1=Winter Wonderland
TTITLE2=White Christmas
TTITLE3=I'll Be Home for Christmas
TTITLE4=Santa Claus Is Coming to Town
TTITLE5=Have Yourself a Merry Little Christmas
TTITLE6=Ave Maria
TTITLE7=O Come, O Come, Emmanuel
TTITLE8=O Holy Night
TTITLE9=Silent Night
TTITLE10=It's the Messiah
EXTD=
EXTT0=
EXTT1=
EXTT2=
EXTT3=
EXTT4=
EXTT5=
EXTT6=
EXTT7=
EXTT8=
EXTT9=
EXTT10=
PLAYORDER=
